{
  "accessors": [
    {
      "bufferView": 1,
      "componentType": 5126,
      "count": 436,
      "max": [
        10,
        -0,
        -27
      ],
      "min": [
        -14,
        -4,
        -42
      ],
      "type": "VEC3"
    },
    {
      "bufferView": 1,
      "byteOffset": 5232,
      "componentType": 5126,
      "count": 436,
      "max": [
        0.99882739782333374,
        1,
        1
      ],
      "min": [
        -0.99882739782333374,
        -1,
        -1
      ],
      "type": "VEC3"
    },
    {
      "bufferView": 0,
      "componentType": 5125,
      "count": 1284,
      "max": [
        435
      ],
      "min": [
        0
      ],
      "type": "SCALAR"
    },
    {
      "bufferView": 1,
      "byteOffset": 10464,
      "componentType": 5126,
      "count": 3636,
      "max": [
        58,
        -0,
        -21
      ],
      "min": [
        -61,
        -107,
        -41
      ],
      "type": "VEC3"
    },
    {
      "bufferView": 1,
      "byteOffset": 54096,
      "componentType": 5126,
      "count": 3636,
      "max": [
        1,
        1,
        1
      ],
      "min": [
        -1,
        -1,
        -1
      ],
      "type": "VEC3"
    },
    {
      "bufferView": 0,
      "byteOffset": 5136,
      "componentType": 5125,
      "count": 16914,
      "max": [
        3635
      ],
      "min": [
        0
      ],
      "type": "SCALAR"
    },
    {
      "bufferView": 1,
      "byteOffset": 97728,
      "componentType": 5126,
      "count": 279,
      "max": [
        9,
        -31.624500274658203,
        -28
      ],
      "min": [
        -13,
        -60,
        -34
      ],
      "type": "VEC3"
    },
    {
      "bufferView": 1,
      "byteOffset": 101076,
      "componentType": 5126,
      "count": 279,
      "max": [
        1,
        4.6671343625348527e-06,
        1
      ],
      "min": [
        -1,
        -1,
        -1
      ],
      "type": "VEC3"
    },
    {
      "bufferView": 0,
      "byteOffset": 72792,
      "componentType": 5125,
      "count": 813,
      "max": [
        278
      ],
      "min": [
        0
      ],
      "type": "SCALAR"
    },
    {
      "bufferView": 1,
      "byteOffset": 104424,
      "componentType": 5126,
      "count": 491,
      "max": [
        26.782499313354492,
        -60,
        -25
      ],
      "min": [
        -31.782499313354492,
        -82,
        -37
      ],
      "type": "VEC3"
    },
    {
      "bufferView": 1,
      "byteOffset": 110316,
      "componentType": 5126,
      "count": 491,
      "max": [
        0.99864345788955688,
        1,
        1
      ],
      "min": [
        -0.99864345788955688,
        -1,
        -1
      ],
      "type": "VEC3"
    },
    {
      "bufferView": 0,
      "byteOffset": 76044,
      "componentType": 5125,
      "count": 1515,
      "max": [
        490
      ],
      "min": [
        0
      ],
      "type": "SCALAR"
    }
  ],
  "asset": {
    "extras": {
      "author": "makeademic (https://sketchfab.com/makeademic)",
      "license": "CC-BY-4.0 (http://creativecommons.org/licenses/by/4.0/)",
      "source": "https://sketchfab.com/3d-models/tinker-18db5fc00bdd444597ade9405b5bc871",
      "title": "tinker"
    },
    "generator": "Sketchfab-9.48.0",
    "version": "2.0"
  },
  "bufferViews": [
    {
      "buffer": 0,
      "byteLength": 82104,
      "byteOffset": 0,
      "name": "floatBufferViews",
      "target": 34963
    },
    {
      "buffer": 0,
      "byteLength": 116208,
      "byteOffset": 82104,
      "byteStride": 12,
      "name": "floatBufferViews",
      "target": 34962
    }
  ],
  "buffers": [
    {
      "byteLength": 198312,
      "uri": "scene.bin"
    }
  ],
  "materials": [
    {
      "doubleSided": true,
      "emissiveFactor": [
        0,
        0,
        0
      ],
      "name": "color_14093196",
      "pbrMetallicRoughness": {
        "baseColorFactor": [
          0.84313700000000003,
          0.043137300000000003,
          0.54901999999999995,
          1
        ],
        "metallicFactor": 0,
        "roughnessFactor": 1
      }
    },
    {
      "doubleSided": true,
      "emissiveFactor": [
        0,
        0,
        0
      ],
      "name": "color_14860437",
      "pbrMetallicRoughness": {
        "baseColorFactor": [
          0.88627500000000003,
          0.75294099999999997,
          0.584314,
          1
        ],
        "metallicFactor": 0,
        "roughnessFactor": 1
      }
    },
    {
      "doubleSided": true,
      "emissiveFactor": [
        0,
        0,
        0
      ],
      "name": "color_1650274",
      "pbrMetallicRoughness": {
        "baseColorFactor": [
          0.098039200000000007,
          0.180392,
          0.38431399999999999,
          1
        ],
        "metallicFactor": 0,
        "roughnessFactor": 1
      }
    },
    {
      "doubleSided": true,
      "emissiveFactor": [
        0,
        0,
        0
      ],
      "name": "color_7720667",
      "pbrMetallicRoughness": {
        "baseColorFactor": [
          0.45882400000000001,
          0.80784299999999998,
          0.85882400000000003,
          1
        ],
        "metallicFactor": 0,
        "roughnessFactor": 1
      }
    }
  ],
  "meshes": [
    {
      "primitives": [
        {
          "attributes": {
            "NORMAL": 1,
            "POSITION": 0
          },
          "indices": 2,
          "material": 0,
          "mode": 4
        }
      ]
    },
    {
      "primitives": [
        {
          "attributes": {
            "NORMAL": 4,
            "POSITION": 3
          },
          "indices": 5,
          "material": 1,
          "mode": 4
        }
      ]
    },
    {
      "primitives": [
        {
          "attributes": {
            "NORMAL": 7,
            "POSITION": 6
          },
          "indices": 8,
          "material": 2,
          "mode": 4
        }
      ]
    },
    {
      "primitives": [
        {
          "attributes": {
            "NORMAL": 10,
            "POSITION": 9
          },
          "indices": 11,
          "material": 3,
          "mode": 4
        }
      ]
    }
  ],
  "nodes": [
    {
      "children": [
        1
      ],
      "name": "RootNode (gltf orientation matrix)",
      "rotation": [
        -0.70710678118654746,
        -0,
        -0,
        0.70710678118654757
      ]
    },
    {
      "children": [
        2
      ],
      "matrix": [
        1,
        -1.6081226229577292e-16,
        -1.6081226229577292e-16,
        0,
        -1.6081226229577292e-16,
        2.2204460492503131e-16,
        -1,
        0,
        1.6081226229577292e-16,
        1,
        2.2204460492503131e-16,
        0,
        -3.5527136788005009e-15,
        -21.999908447265625,
        -84.999931335449219,
        1
      ],
      "name": "RootNode (model correction matrix)"
    },
    {
      "children": [
        3,
        4,
        5,
        6
      ],
      "name": "tinker.obj.cleaner.materialmerger.gles"
    },
    {
      "mesh": 0,
      "name": ""
    },
    {
      "mesh": 1,
      "name": ""
    },
    {
      "mesh": 2,
      "name": ""
    },
    {
      "mesh": 3,
      "name": ""
    }
  ],
  "scene": 0,
  "scenes": [
    {
      "name": "OSG_Scene",
      "nodes": [
        0
      ]
    }
  ]
}

